<?xml version="1.0" encoding="UTF-8" standalone="no"?>
<!DOCTYPE svg PUBLIC "-//W3C//DTD SVG 1.1//EN"
 "http://www.w3.org/Graphics/SVG/1.1/DTD/svg11.dtd">
<!-- Generated by graphviz version 12.2.1 (20241206.2353)
 -->
<!-- Title: st/topnav/v1 Pages: 1 -->
<svg width="766pt" height="836pt"
 viewBox="0.00 0.00 766.10 836.00" xmlns="http://www.w3.org/2000/svg" xmlns:xlink="http://www.w3.org/1999/xlink">
<g id="graph0" class="graph" transform="scale(1 1) rotate(0) translate(4 832)">
<title>st/topnav/v1</title>
<polygon fill="white" stroke="none" points="-4,4 -4,-832 762.1,-832 762.1,4 -4,4"/>
<!-- user_features -->
<g id="node1" class="node">
<title>user_features</title>
<ellipse fill="none" stroke="black" cx="188.48" cy="-522" rx="60.05" ry="18"/>
<text text-anchor="middle" x="188.48" y="-516.95" font-family="Times,serif" font-size="14.00">user_features</text>
</g>
<!-- recall -->
<g id="node2" class="node">
<title>recall</title>
<ellipse fill="none" stroke="black" cx="261.48" cy="-450" rx="31.39" ry="18"/>
<text text-anchor="middle" x="261.48" y="-444.95" font-family="Times,serif" font-size="14.00">recall</text>
</g>
<!-- user_features&#45;&gt;recall -->
<g id="edge1" class="edge">
<title>user_features&#45;&gt;recall</title>
<path fill="none" stroke="black" d="M205.78,-504.41C215.27,-495.31 227.18,-483.9 237.54,-473.96"/>
<polygon fill="black" stroke="black" points="239.91,-476.53 244.71,-467.09 235.07,-471.48 239.91,-476.53"/>
</g>
<!-- item_features -->
<g id="node3" class="node">
<title>item_features</title>
<ellipse fill="none" stroke="black" cx="219.48" cy="-378" rx="61.59" ry="18"/>
<text text-anchor="middle" x="219.48" y="-372.95" font-family="Times,serif" font-size="14.00">item_features</text>
</g>
<!-- recall&#45;&gt;item_features -->
<g id="edge2" class="edge">
<title>recall&#45;&gt;item_features</title>
<path fill="none" stroke="black" d="M251.74,-432.76C246.95,-424.78 241.06,-414.95 235.62,-405.89"/>
<polygon fill="black" stroke="black" points="238.68,-404.2 230.54,-397.42 232.68,-407.8 238.68,-404.2"/>
</g>
<!-- gen_features -->
<g id="node4" class="node">
<title>gen_features</title>
<ellipse fill="none" stroke="black" cx="357.48" cy="-378" rx="58" ry="18"/>
<text text-anchor="middle" x="357.48" y="-372.95" font-family="Times,serif" font-size="14.00">gen_features</text>
</g>
<!-- recall&#45;&gt;gen_features -->
<g id="edge3" class="edge">
<title>recall&#45;&gt;gen_features</title>
<path fill="none" stroke="black" d="M280.45,-435.17C293.57,-425.6 311.33,-412.65 326.5,-401.6"/>
<polygon fill="black" stroke="black" points="328.29,-404.62 334.31,-395.9 324.17,-398.96 328.29,-404.62"/>
</g>
<!-- filter -->
<g id="node5" class="node">
<title>filter</title>
<ellipse fill="none" stroke="black" cx="247.48" cy="-306" rx="28.83" ry="18"/>
<text text-anchor="middle" x="247.48" y="-300.95" font-family="Times,serif" font-size="14.00">filter</text>
</g>
<!-- item_features&#45;&gt;filter -->
<g id="edge5" class="edge">
<title>item_features&#45;&gt;filter</title>
<path fill="none" stroke="black" d="M226.41,-359.7C229.47,-352.04 233.15,-342.85 236.56,-334.3"/>
<polygon fill="black" stroke="black" points="239.81,-335.61 240.27,-325.03 233.31,-333.01 239.81,-335.61"/>
</g>
<!-- gen_features&#45;&gt;filter -->
<g id="edge4" class="edge">
<title>gen_features&#45;&gt;filter</title>
<path fill="none" stroke="black" d="M332.8,-361.29C316.28,-350.78 294.45,-336.89 277.01,-325.79"/>
<polygon fill="black" stroke="black" points="278.91,-322.85 268.6,-320.44 275.16,-328.76 278.91,-322.85"/>
</g>
<!-- rank -->
<g id="node6" class="node">
<title>rank</title>
<ellipse fill="none" stroke="black" cx="236.48" cy="-234" rx="27.3" ry="18"/>
<text text-anchor="middle" x="236.48" y="-228.95" font-family="Times,serif" font-size="14.00">rank</text>
</g>
<!-- filter&#45;&gt;rank -->
<g id="edge23" class="edge">
<title>filter&#45;&gt;rank</title>
<path fill="none" stroke="black" d="M244.77,-287.7C243.61,-280.32 242.22,-271.52 240.92,-263.25"/>
<polygon fill="black" stroke="black" points="244.42,-262.93 239.41,-253.6 237.5,-264.02 244.42,-262.93"/>
</g>
<!-- rerank -->
<g id="node7" class="node">
<title>rerank</title>
<ellipse fill="none" stroke="black" cx="225.48" cy="-162" rx="34.46" ry="18"/>
<text text-anchor="middle" x="225.48" y="-156.95" font-family="Times,serif" font-size="14.00">rerank</text>
</g>
<!-- rank&#45;&gt;rerank -->
<g id="edge6" class="edge">
<title>rank&#45;&gt;rerank</title>
<path fill="none" stroke="black" d="M233.77,-215.7C232.61,-208.32 231.22,-199.52 229.92,-191.25"/>
<polygon fill="black" stroke="black" points="233.42,-190.93 228.41,-181.6 226.5,-192.02 233.42,-190.93"/>
</g>
<!-- output -->
<g id="node15" class="node">
<title>output</title>
<ellipse fill="none" stroke="black" cx="173.48" cy="-90" rx="34.46" ry="18"/>
<text text-anchor="middle" x="173.48" y="-84.95" font-family="Times,serif" font-size="14.00">output</text>
</g>
<!-- rerank&#45;&gt;output -->
<g id="edge16" class="edge">
<title>rerank&#45;&gt;output</title>
<path fill="none" stroke="black" d="M213.42,-144.76C207.12,-136.28 199.27,-125.71 192.2,-116.2"/>
<polygon fill="black" stroke="black" points="195.16,-114.3 186.38,-108.36 189.54,-118.48 195.16,-114.3"/>
</g>
<!-- downgrade -->
<g id="node8" class="node">
<title>downgrade</title>
<ellipse fill="none" stroke="black" cx="391.48" cy="-738" rx="51.86" ry="18"/>
<text text-anchor="middle" x="391.48" y="-732.95" font-family="Times,serif" font-size="14.00">downgrade</text>
</g>
<!-- personalization -->
<g id="node9" class="node">
<title>personalization</title>
<ellipse fill="none" stroke="black" cx="222.48" cy="-666" rx="67.22" ry="18"/>
<text text-anchor="middle" x="222.48" y="-660.95" font-family="Times,serif" font-size="14.00">personalization</text>
</g>
<!-- downgrade&#45;&gt;personalization -->
<g id="edge7" class="edge">
<title>downgrade&#45;&gt;personalization</title>
<path fill="none" stroke="black" d="M359.3,-723.67C333.65,-713.05 297.41,-698.03 268.67,-686.13"/>
<polygon fill="black" stroke="black" points="270.03,-682.91 259.45,-682.31 267.35,-689.37 270.03,-682.91"/>
</g>
<!-- downgrade_hotlist -->
<g id="node10" class="node">
<title>downgrade_hotlist</title>
<ellipse fill="none" stroke="black" cx="391.48" cy="-666" rx="79.5" ry="18"/>
<text text-anchor="middle" x="391.48" y="-660.95" font-family="Times,serif" font-size="14.00">downgrade_hotlist</text>
</g>
<!-- downgrade&#45;&gt;downgrade_hotlist -->
<g id="edge8" class="edge">
<title>downgrade&#45;&gt;downgrade_hotlist</title>
<path fill="none" stroke="black" d="M391.48,-719.7C391.48,-712.41 391.48,-703.73 391.48,-695.54"/>
<polygon fill="black" stroke="black" points="394.99,-695.62 391.49,-685.62 387.99,-695.62 394.99,-695.62"/>
</g>
<!-- downgrade_emergency -->
<g id="node11" class="node">
<title>downgrade_emergency</title>
<ellipse fill="none" stroke="black" cx="644.48" cy="-666" rx="97.41" ry="18"/>
<text text-anchor="middle" x="644.48" y="-660.95" font-family="Times,serif" font-size="14.00">downgrade_emergency</text>
</g>
<!-- downgrade&#45;&gt;downgrade_emergency -->
<g id="edge9" class="edge">
<title>downgrade&#45;&gt;downgrade_emergency</title>
<path fill="none" stroke="black" d="M431.29,-725.99C471.49,-714.86 534.18,-697.52 581.2,-684.51"/>
<polygon fill="black" stroke="black" points="582.02,-687.91 590.72,-681.87 580.15,-681.17 582.02,-687.91"/>
</g>
<!-- failover_personalization -->
<g id="node14" class="node">
<title>failover_personalization</title>
<ellipse fill="none" stroke="black" cx="100.48" cy="-306" rx="100.48" ry="18"/>
<text text-anchor="middle" x="100.48" y="-300.95" font-family="Times,serif" font-size="14.00">failover_personalization</text>
</g>
<!-- personalization&#45;&gt;failover_personalization -->
<g id="edge17" class="edge">
<title>personalization&#45;&gt;failover_personalization</title>
<path fill="none" stroke="black" d="M183.54,-651.02C164.54,-642.41 142.76,-629.61 128.48,-612 102.38,-579.79 100.48,-564.47 100.48,-523 100.48,-523 100.48,-523 100.48,-449 100.48,-409.74 100.48,-364.38 100.48,-335.69"/>
<polygon fill="black" stroke="black" points="103.99,-336 100.49,-326 96.99,-336 103.99,-336"/>
</g>
<!-- ab_configs -->
<g id="node19" class="node">
<title>ab_configs</title>
<ellipse fill="none" stroke="black" cx="188.48" cy="-594" rx="51.35" ry="18"/>
<text text-anchor="middle" x="188.48" y="-588.95" font-family="Times,serif" font-size="14.00">ab_configs</text>
</g>
<!-- personalization&#45;&gt;ab_configs -->
<g id="edge18" class="edge">
<title>personalization&#45;&gt;ab_configs</title>
<path fill="none" stroke="black" d="M214.08,-647.7C210.37,-640.07 205.93,-630.92 201.79,-622.4"/>
<polygon fill="black" stroke="black" points="204.97,-620.93 197.45,-613.47 198.67,-623.99 204.97,-620.93"/>
</g>
<!-- history -->
<g id="node20" class="node">
<title>history</title>
<ellipse fill="none" stroke="black" cx="303.48" cy="-522" rx="36.51" ry="18"/>
<text text-anchor="middle" x="303.48" y="-516.95" font-family="Times,serif" font-size="14.00">history</text>
</g>
<!-- personalization&#45;&gt;history -->
<g id="edge19" class="edge">
<title>personalization&#45;&gt;history</title>
<path fill="none" stroke="black" d="M232.26,-647.87C246.2,-623.43 271.92,-578.33 288.34,-549.55"/>
<polygon fill="black" stroke="black" points="291.27,-551.48 293.18,-541.06 285.19,-548.02 291.27,-551.48"/>
</g>
<!-- failover_hotlist -->
<g id="node17" class="node">
<title>failover_hotlist</title>
<ellipse fill="none" stroke="black" cx="362.48" cy="-594" rx="67.22" ry="18"/>
<text text-anchor="middle" x="362.48" y="-588.95" font-family="Times,serif" font-size="14.00">failover_hotlist</text>
</g>
<!-- downgrade_hotlist&#45;&gt;failover_hotlist -->
<g id="edge13" class="edge">
<title>downgrade_hotlist&#45;&gt;failover_hotlist</title>
<path fill="none" stroke="black" d="M384.32,-647.7C381.19,-640.15 377.45,-631.12 373.95,-622.68"/>
<polygon fill="black" stroke="black" points="377.21,-621.4 370.15,-613.5 370.74,-624.08 377.21,-621.4"/>
</g>
<!-- history_hotlist -->
<g id="node18" class="node">
<title>history_hotlist</title>
<ellipse fill="none" stroke="black" cx="511.48" cy="-594" rx="64.15" ry="18"/>
<text text-anchor="middle" x="511.48" y="-588.95" font-family="Times,serif" font-size="14.00">history_hotlist</text>
</g>
<!-- downgrade_hotlist&#45;&gt;history_hotlist -->
<g id="edge14" class="edge">
<title>downgrade_hotlist&#45;&gt;history_hotlist</title>
<path fill="none" stroke="black" d="M419.32,-648.76C435.83,-639.13 456.96,-626.81 474.82,-616.39"/>
<polygon fill="black" stroke="black" points="476.45,-619.49 483.32,-611.43 472.92,-613.44 476.45,-619.49"/>
</g>
<!-- emergency_output -->
<g id="node22" class="node">
<title>emergency_output</title>
<ellipse fill="none" stroke="black" cx="673.48" cy="-594" rx="80.01" ry="18"/>
<text text-anchor="middle" x="673.48" y="-588.95" font-family="Times,serif" font-size="14.00">emergency_output</text>
</g>
<!-- downgrade_emergency&#45;&gt;emergency_output -->
<g id="edge24" class="edge">
<title>downgrade_emergency&#45;&gt;emergency_output</title>
<path fill="none" stroke="black" d="M651.65,-647.7C654.78,-640.15 658.52,-631.12 662.02,-622.68"/>
<polygon fill="black" stroke="black" points="665.23,-624.08 665.82,-613.5 658.76,-621.4 665.23,-624.08"/>
</g>
<!-- hotlist_output -->
<g id="node12" class="node">
<title>hotlist_output</title>
<ellipse fill="none" stroke="black" cx="464.48" cy="-522" rx="62.1" ry="18"/>
<text text-anchor="middle" x="464.48" y="-516.95" font-family="Times,serif" font-size="14.00">hotlist_output</text>
</g>
<!-- hotlist_logging -->
<g id="node13" class="node">
<title>hotlist_logging</title>
<ellipse fill="none" stroke="black" cx="464.48" cy="-450" rx="66.71" ry="18"/>
<text text-anchor="middle" x="464.48" y="-444.95" font-family="Times,serif" font-size="14.00">hotlist_logging</text>
</g>
<!-- hotlist_output&#45;&gt;hotlist_logging -->
<g id="edge10" class="edge">
<title>hotlist_output&#45;&gt;hotlist_logging</title>
<path fill="none" stroke="black" d="M464.48,-503.7C464.48,-496.41 464.48,-487.73 464.48,-479.54"/>
<polygon fill="black" stroke="black" points="467.99,-479.62 464.49,-469.62 460.99,-479.62 467.99,-479.62"/>
</g>
<!-- failover_personalization&#45;&gt;output -->
<g id="edge11" class="edge">
<title>failover_personalization&#45;&gt;output</title>
<path fill="none" stroke="black" d="M106.34,-287.85C118.91,-250.99 148.61,-163.92 163.95,-118.96"/>
<polygon fill="black" stroke="black" points="167.2,-120.26 167.12,-109.66 160.58,-118 167.2,-120.26"/>
</g>
<!-- logging -->
<g id="node16" class="node">
<title>logging</title>
<ellipse fill="none" stroke="black" cx="173.48" cy="-18" rx="39.07" ry="18"/>
<text text-anchor="middle" x="173.48" y="-12.95" font-family="Times,serif" font-size="14.00">logging</text>
</g>
<!-- output&#45;&gt;logging -->
<g id="edge12" class="edge">
<title>output&#45;&gt;logging</title>
<path fill="none" stroke="black" d="M173.48,-71.7C173.48,-64.41 173.48,-55.73 173.48,-47.54"/>
<polygon fill="black" stroke="black" points="176.99,-47.62 173.49,-37.62 169.99,-47.62 176.99,-47.62"/>
</g>
<!-- failover_hotlist&#45;&gt;hotlist_output -->
<g id="edge25" class="edge">
<title>failover_hotlist&#45;&gt;hotlist_output</title>
<path fill="none" stroke="black" d="M386.14,-576.76C399.76,-567.42 417.06,-555.55 431.94,-545.33"/>
<polygon fill="black" stroke="black" points="433.8,-548.31 440.06,-539.76 429.83,-542.54 433.8,-548.31"/>
</g>
<!-- history_hotlist&#45;&gt;hotlist_output -->
<g id="edge22" class="edge">
<title>history_hotlist&#45;&gt;hotlist_output</title>
<path fill="none" stroke="black" d="M500.11,-576.05C494.68,-567.97 488.07,-558.12 482.02,-549.11"/>
<polygon fill="black" stroke="black" points="485.08,-547.4 476.6,-541.05 479.27,-551.3 485.08,-547.4"/>
</g>
<!-- ab_configs&#45;&gt;user_features -->
<g id="edge15" class="edge">
<title>ab_configs&#45;&gt;user_features</title>
<path fill="none" stroke="black" d="M188.48,-575.7C188.48,-568.41 188.48,-559.73 188.48,-551.54"/>
<polygon fill="black" stroke="black" points="191.99,-551.62 188.49,-541.62 184.99,-551.62 191.99,-551.62"/>
</g>
<!-- history&#45;&gt;recall -->
<g id="edge26" class="edge">
<title>history&#45;&gt;recall</title>
<path fill="none" stroke="black" d="M293.53,-504.41C288.67,-496.3 282.7,-486.35 277.23,-477.25"/>
<polygon fill="black" stroke="black" points="280.29,-475.54 272.15,-468.77 274.29,-479.14 280.29,-475.54"/>
</g>
<!-- rate_limit -->
<g id="node21" class="node">
<title>rate_limit</title>
<ellipse fill="none" stroke="black" cx="391.48" cy="-810" rx="47.26" ry="18"/>
<text text-anchor="middle" x="391.48" y="-804.95" font-family="Times,serif" font-size="14.00">rate_limit</text>
</g>
<!-- rate_limit&#45;&gt;downgrade -->
<g id="edge20" class="edge">
<title>rate_limit&#45;&gt;downgrade</title>
<path fill="none" stroke="black" d="M391.48,-791.7C391.48,-784.41 391.48,-775.73 391.48,-767.54"/>
<polygon fill="black" stroke="black" points="394.99,-767.62 391.49,-757.62 387.99,-767.62 394.99,-767.62"/>
</g>
<!-- emergency_logging -->
<g id="node23" class="node">
<title>emergency_logging</title>
<ellipse fill="none" stroke="black" cx="673.48" cy="-522" rx="84.62" ry="18"/>
<text text-anchor="middle" x="673.48" y="-516.95" font-family="Times,serif" font-size="14.00">emergency_logging</text>
</g>
<!-- emergency_output&#45;&gt;emergency_logging -->
<g id="edge21" class="edge">
<title>emergency_output&#45;&gt;emergency_logging</title>
<path fill="none" stroke="black" d="M673.48,-575.7C673.48,-568.41 673.48,-559.73 673.48,-551.54"/>
<polygon fill="black" stroke="black" points="676.99,-551.62 673.49,-541.62 669.99,-551.62 676.99,-551.62"/>
</g>
</g>
</svg>
